<svg version="1.2" xmlns="http://www.w3.org/2000/svg" viewBox="0 0 400 371" width="400" height="371">
	<title>Ciane13Manager-svg</title>
	<style>
		.s0 { fill: #040404 } 
	</style>
	<g id="svgg">
		<path id="path0" fill-rule="evenodd" class="s0" d="m195.4 2.8l1.7 1.6 0.6-0.8c4.2-5.2 8.8-3.7 15.5 5.3 2.4 3.3 1.6 5.9-3 9.8-5 4-7.8 4.9-11.6 3.5-1.7-0.6-2.8-0.9-3-0.8-0.4 0.3 0.9 6.2 1.9 8.4 1.3 2.7 3.7 3.9 8 3.9 3.6 0 4.3 0.3 4.7 2.1 0.4 1.8 1.1 6.6 1.5 11.3 0.8 7 1.5 13.4 1.7 14.8 0.3 2.6-0.4 4.3-2 4.3-2.3 0-2.9-2-3.2-10-0.2-4.6-0.5-7.4-0.8-7.3-0.6 0.1-5.5 5.8-7.2 8.4-2.6 3.9-2.9 4.9-2.9 12v5.4h-5.1c-6 0-8.1 0.1-7.7 0.5 0.3 0.3 3.1 0.5 8.2 0.6 5.1 0.1 5.8 0.1 5.9 0.3 0.1 0.5 3.6 8.4 6.1 14 2.2 4.7 2.7 5.9 3.9 8.5 0.6 1.4 1.9 4.1 2.8 6.1 0.9 2.1 1.9 4.4 2.3 5.2 1.2 2.6 2.2 4.9 3.4 7.4 2.1 4.7 3.3 7.5 3.3 8v0.6h-1.1c-0.6-0.1-1.8-0.2-2.6-0.3-9.2-1.5-23.1 0.7-43.5 6.8-9.1 2.8-14.7 3.9-18.7 3.7h-1.7l3.6-7.3c3.7-7.3 4.7-9.5 6.2-13 0.5-1 1.4-3 2-4.3 1.8-3.9 2.8-6.2 4.6-10.4 0.9-2.2 2.2-5.2 2.8-6.7 1-2.3 2.1-5 5.2-12.7 0.4-1 1-2.5 1.4-3.5 1-2.1 1.2-2.8 1.4-4.5 0.2-1.5 0.8-3 2.5-5.8 6-9.7 7.2-14 6.4-22.7-0.3-3.4-0.5-3.9-1.9-5.5-2.3-2.7-2.1-4 0.8-5.7 4.4-2.6 5.2-4.5 3.6-8.6-0.5-1.4-0.7-2.2-0.7-2.8 0-1.1-0.3-1.3-1.9-1.3-2.2 0-4.9-1-6.6-2.4-1.6-1.3-1.6-3.8 0-9.3 1.4-5.3 3.1-7.9 5.8-9.1 2.4-1 4.7-0.3 7.4 2.3zm3 2.9c0.2 0.5 2.3 2.5 2.4 2.4 0.1-0.2-0.8-1.4-1.6-2.1-0.9-0.8-1.1-0.8-0.8-0.3zm2.9 7.4c-0.2 0.4-0.8 1.3-1.5 2-1.1 1.2-1.5 1.9-0.8 1.6 1-0.5 2.8-3.1 2.8-3.9 0-0.5-0.2-0.4-0.5 0.3zm-5.3 5.3c-0.3 0.4-0.1 0.6 0.5 0.4 0.5-0.2 1.5-0.9 1.5-1.1 0-0.4-1.5 0.1-2 0.7zm-1.6 1.3c-0.6 0.3-0.6 0.6 0 0.8 0.6 0.2 1.1-0.1 1.1-0.7 0-0.6-0.3-0.6-1.1-0.1zm25.2 107.5c1.9 0.4 2.5 1.4 6.3 9.8 0.3 0.7 0.9 2 1.4 3 0.4 1 1.2 2.7 1.7 3.9 0.6 1.2 1.1 2.4 1.1 2.6l0.1 0.6-3.1-0.2c-1.8 0-4.6-0.1-6.3-0.2-9.4-0.6-22.4 1-34.1 4.1-10.6 2.8-11 2.9-19.8 5.7-2.2 0.7-6.4 2-9.5 2.9-3.5 1-8.6 2.2-11.2 2.7-2.5 0.4-7.8 1-8 0.8 0 0 0.5-1 1.2-2.1 0.7-1.1 1.9-3.4 2.8-5 0.9-1.6 2-3.4 2.4-4.1 1.3-2.3 4.8-8.9 6.1-11.5 0.8-1.3 1.4-2.5 1.4-2.5 0 0 1.5-0.2 3.4-0.4 5.5-0.5 10.7-1.7 19.7-4.4 9.9-2.9 13.9-3.9 18.6-4.9 4.7-0.9 5.5-1 7.9-1.2 5.3-0.3 15.6-0.1 17.9 0.4zm11.1 21.7c0.7 0.4 2 3 6.8 13.8 0.9 1.9 1.9 4.2 3.1 6.8 0.4 0.9 1.4 3.1 2.2 4.9 1.3 2.8 3.8 8.4 5.3 11.7 0.2 0.4 1.1 2.4 1.9 4.2 0.8 1.9 1.9 4.2 2.3 5.2 0.5 1 1.1 2.4 1.5 3.2 0.4 0.9 1 2.3 1.4 3.2 6.2 13.6 6.7 14.9 6.5 15.1-0.1 0.1-1.7 0.2-3.6 0.2-3.2 0.1-8.3 0.7-11.3 1.2-2.5 0.5-7.4 1.6-8.9 2.1-0.9 0.3-1.7 0.5-1.8 0.5-0.7 0-7.2 2.7-11 4.5-9.5 4.5-16 9.5-27.5 20.9-1.7 1.6-3.1 2.9-3.2 2.9-0.1 0-0.9-1.1-1.7-2.4-9.7-15.1-21-24.2-36.3-29.3-13-4.3-32.9-4.2-52.2 0.4-2.6 0.6-5 1.2-5.3 1.2h-0.6l0.6-0.8c0.2-0.5 1.2-1.6 2-2.7 10.7-12.8 22.1-28.7 30.8-42.6 0.9-1.3 2.2-3.4 3-4.8 0.9-1.3 1.8-2.8 2.1-3.2l0.5-0.9 2.5-0.1c3.1-0.1 4.1-0.3 7.4-1.1 9.5-2.3 14.2-3.6 23.7-6.6 16.4-5.1 27.2-7.6 36.9-8.4 1.2-0.1 2.4-0.2 2.8-0.2 5.3-0.5 18.3 0.2 20.1 1.1zm-183.3 110.4c3.1 1 4 0.9 5.1-0.6q0.9-1.2 1.4-0.2c0.2 0.5 0.4 15.9 0.1 18.2l-0.1 1.4-0.5-1.3c-4-9.2-4.6-10.2-7.8-13.6-4.1-4.3-6.3-5.2-12.3-5.2-5.1 0-7 0.5-10.1 2.9-7.7 5.7-11.7 14.5-12.1 26.3-0.5 13 3.4 23.1 10.8 28.1 4.1 2.7 6.7 3.4 12.9 3.4 10.2 0 15.7-3.6 18.5-12.4 1.9-5.9 2.8-5.2 1.1 0.9-2.8 9.5-10.8 14.7-23.1 14.7-16 0-27.8-9.3-30.5-24.1-2.4-12.7 0.9-24.8 8.7-32.4 5-4.8 10.5-7.3 19.6-8.8 4.4-0.8 10.9 0.2 18.3 2.7zm341.5-0.8c5.5 2.5 8.4 7.1 8.4 13.3 0 6.4-1.7 9-9 14.1-1.5 1.1-1.5 1.1 1.5 2.6 8.2 4.1 10.9 9.6 9 18.5-1.3 6.2-8.6 12.8-15 13.5-5.8 0.6-13.2 0-16-1.4-8.8-4.3-9.2-16.4-0.7-19.3 2.6-0.8 2.9-0.5 1.3 1.7-2.1 3.2-2.1 3.3-2.2 5.8-0.3 13.5 16.8 17.7 23.5 5.8 5-8.7 1.8-22.2-5.7-24.3-2-0.6-3.3-0.3-5.5 1.2-3.2 2.1-5.6 2-6.8-0.5-0.2-0.6-0.2-0.7 0-1.2 1.1-2.3 3.3-3.1 6.1-2.1 6.3 2.2 12.7-4.6 12.7-13.5 0-12.1-10.6-19.7-17.6-12.6-3.6 3.6-3.4 8.3 0.4 12 1.8 1.7 1.8 1.8 0.8 2.3-3.3 1.4-7.7-0.8-8.9-4.4-2-6 4.2-12.7 12.6-13.6 3-0.4 7.8 0.6 11.1 2.1zm-299.3-0.2c0.4 0.2-0.3 0.5-2.3 1-2.7 0.6-4.7 2.3-5.9 4.6l-0.6 1.2-0.2 6.3c-0.2 7.2 0 38.1 0.2 40.6 0.4 3.6 2.4 5.7 6.6 6.9 0.8 0.3 1.7 0.6 2 0.7l0.5 0.3-0.4 0.2c-1 0.4-27.9 0.3-28.3-0.2q-0.3-0.3 1.5-0.8c4.4-1.1 6.9-3.6 7.3-7.4 0.4-3.7 0.3-43.9-0.2-46.4-0.5-3.1-3-5.1-7.6-6.3q-2.9-0.7 2.3-1c6.8-0.3 24.4-0.1 25.1 0.3zm80.9-0.4l6.8-0.1 2.1 2.6c1.7 2.3 4.3 5.6 9.9 12.7 0.6 0.7 1.8 2.2 2.7 3.4 4.1 5.2 4.9 6.3 5.6 7.1 0.3 0.5 1.3 1.6 2 2.6 3.3 4.2 8.1 10.3 10.2 12.8 3.9 4.7 4.4 5.2 4.7 4.9 0.6-0.6 0.3-34.2-0.3-38.1-0.5-3.2-3.1-5.7-6.9-6.6-3.5-0.9-2.2-1.2 6.3-1.3 5.7-0.1 11.8 0.1 12 0.3 0.2 0.2-0.2 0.4-1.9 1-3.8 1.2-5.8 3.1-6.6 6.1-0.4 1.6-0.6 8.9-0.8 31.7 0 12.2-0.2 22.3-0.2 22.7-0.4 1.5-2.2 0.1-6.8-5.7-1.4-1.8-5.5-7-9.2-11.5-3.6-4.5-7.7-9.7-9.1-11.5-1.4-1.8-3.9-4.9-5.5-6.9-6.5-8.1-8.4-10.5-11-13.9-3-3.8-2.9-3.7-3.1-3.1-0.6 3.3-0.4 41.4 0.3 45.3 0.6 3.3 3 5.6 6.9 6.7 3.5 1 2.6 1.2-8.3 1.2-11.2 0-12.4-0.2-8.3-1.2 3-0.7 5.6-2.8 6.4-5.2 0.8-2 0.9-44.5 0.2-48.6-0.4-2.9-2.8-5.1-6.3-6-2.9-0.8-3-1.1-0.3-1.3 1-0.1 4.8-0.1 8.5-0.1zm109.1 0.4q0.4 0.1 0.5 0.5c0.5 2.8 0.8 13.9 0.3 13.9-0.3 0-0.7-1-1-2.3-1-4-4.2-7.8-8-9.5-2.5-1.2-5.3-1.5-15.3-1.7l-5.6-0.1v13.6c0 7.9 0.1 13.7 0.2 13.7 0.3 0.2 7.1 0.2 8.1 0 3.7-0.9 5.5-3 6.7-7.7 0.8-3.1 1-3.1 1.2-0.3 0.2 2.9 0.1 20.6-0.2 21.1-0.4 0.8-1.2 0-1.2-1.2 0-1.5-1-4.1-2.2-5.9-2-3-5.2-4.2-11-4.2h-1.8l0.1 8.8c0.1 11.8 0.4 13.9 2.6 17.2 2 3 4.6 4.1 10.3 4.5 11.2 0.8 17.5-2.8 20.4-11.3 1.2-3.8 1.9-5.1 2.1-4 0.1 0.8-0.1 15.2-0.2 15.8-0.3 1.1-0.9 1.1-25.8 1.1-27.2 0-31.9-0.2-27.3-1.1 5.3-1 7.4-3.7 7.7-9.8 0.4-8.3 0.1-41.3-0.4-44-0.5-2.9-3.2-5.4-6.5-6.2-3.2-0.8-2.6-1 3.4-1.2 11.5-0.3 41.4-0.1 42.9 0.3zm-149.8 11c0.4 0.8 1.4 3.1 2.2 5.1 1.9 4.6 3.1 7.5 3.5 8.4 0.2 0.5 1 2.4 1.8 4.5 0.9 2 1.9 4.4 2.3 5.5 3 7.2 6.6 15.6 8.1 18.9 1.9 4.1 4.8 6.7 7.9 7.2 2.4 0.4 3 0.8 1.6 1.2-0.8 0.2-26.9 0.2-28.1 0-1.3-0.2-1-0.5 1.7-1.1 5.4-1.3 6.9-4.7 4.7-10.8-2.4-6.5-4.9-12.3-5.7-12.8-0.5-0.3-7.2-0.6-14.8-0.6h-4.5l-0.6 1.3c-6.7 14.6-6.9 19.4-1 22.3 1 0.5 2 0.9 2.2 0.9 0.4 0 1 0.5 0.9 0.6-0.3 0.3-3.3 0.4-10.1 0.4-10.1 0-12.1-0.3-8.6-1.3 2.2-0.6 4.1-2.1 6.1-4.7 2.6-3.5 3.8-6.3 15.5-36.8 0.5-1.4 1.2-3.2 1.5-3.9 0.6-1.3 1.4-3.5 2.9-7.3 2.5-6.7 3-7.9 3.5-8.1 1.7-1 2.5 0.4 7 11.1zm206.9-10.4c0.3 2 0.6 12.9 0.8 32.7 0.2 14.3 0.4 20.3 0.7 22.2q0.6 3.8 6.9 5.3c1.8 0.5 2.1 0.7 1 1-0.9 0.2-24.2 0.2-24.8 0l-0.5-0.2 0.4-0.2c0.2-0.1 1-0.4 1.9-0.6 4.7-1.2 6-2.9 6.4-8.4 0.2-2.6 0.4-45.3 0.3-45.9-0.1-0.5-0.2-0.5-1.5-0.5-2.2 0-6.1-0.2-6.1-0.3 0 0 1.1-0.4 2.6-0.7 3.3-0.8 5.7-1.7 7.7-2.9 0.8-0.6 2-1.3 2.6-1.6 1.3-0.8 1.5-0.8 1.6 0.1zm-218.5 15.2c-0.7 1.7-1.5 3.9-1.9 4.8-1.5 4.1-2.1 5.5-3.1 8.3-1.6 4.4-2.1 5.8-1.8 6 0.2 0.2 15.3 0.2 16.8 0 1-0.1 1-0.1 0.9-0.5-0.2-0.8-4.3-11.1-5.5-14-0.2-0.5-0.8-1.8-1.2-2.8-0.4-1-1.1-2.6-1.6-3.6-1.2-2.4-1-2.5-2.6 1.8zm-4.9 65.9h2.6c1.4 0 3.3 0.1 4.2 0.1l1.6 0.1 0.6 1.5c0.4 0.9 1.4 3.3 2.3 5.5 0.9 2.1 1.9 4.5 2.2 5.2 0.2 0.7 1.2 3.1 2.1 5.3 0.9 2.1 1.8 4.4 2.1 5 0.7 1.7 0.2 2.3 3.9-5.8 2.2-4.7 2.8-6 4.4-9.5 0.7-1.7 1.8-4.1 2.3-5.2l0.9-2 2.3-0.1c1.2-0.1 3.1-0.1 4.2-0.1h1.9l-0.1 0.5c0 0.4-0.1 0.4-1.2 0.5-3.4 0.4-3.3 0.2-3.2 14.7 0 13.1-0.2 12.3 2.8 12.8 1.6 0.2 1.6 0.3 1.6 0.7v0.4h-6.1-6.1l-0.1-0.5c0-0.3 0-0.4 1.4-0.6 3.2-0.4 3 0.3 3.1-12 0-5.5 0-10.8 0-11.9l-0.1-2-1.3 2.7c-0.7 1.5-1.6 3.6-2.1 4.7-0.5 1.1-1.5 3.2-2.2 4.7-0.7 1.6-1.7 3.8-2.2 5-0.5 1.1-1.6 3.4-2.3 5-0.8 1.7-1.6 3.4-1.8 3.9-0.4 0.9-1 1.2-1.2 0.7-0.1-0.1-0.4-0.9-0.7-1.6-0.3-0.8-1.1-2.8-1.8-4.5-3.5-8.5-6.3-15.6-7.3-18.1-0.4-0.9-0.8-1.8-0.9-1.8-0.3-0.4-0.1 23.4 0.3 24 0.3 0.6 1.1 1 2.8 1.2 1.2 0.2 1.3 0.2 1.3 0.7v0.4h-10.2v-0.4c0-0.5 0.1-0.5 1.4-0.7 3.1-0.5 2.9 0.5 2.9-13.1 0.1-11.7 0-12.6-0.6-13.4-0.4-0.5-1.9-1-3-1-0.6 0-0.7 0-0.7-0.5zm119.9 11.2c1.3 0.6 1.8 0.6 2-0.2 0.1-0.3 0.3-0.5 0.5-0.5 0.4 0 0.4 0.1 0.4 3.2 0 3 0 3.1-0.4 3.1-0.2 0-0.4-0.2-0.7-1.1-1.1-3.5-4.5-5.3-7.9-4.1-5.5 1.9-5.8 14.7-0.5 16.8 2.3 0.9 5.5 0.3 7.1-1.2l0.8-0.8v-1.3c0-1.9-0.6-2.6-2.4-2.6-0.7 0-0.8 0-0.8-0.4v-0.4h4.3c4 0 4.2 0 4.2 0.3 0 0.4-0.3 0.5-1 0.5-1.4 0-2 2.6-1.1 4.6q0.8 1.6-0.7 0.9c-0.9-0.5-1.5-0.4-3.5 0.6-3.7 1.7-6.2 1.8-9.3 0.4-7.3-3.4-5.6-16.6 2.4-18.6 2.2-0.5 4.6-0.2 6.6 0.8zm9.3-0.6c0.5 0 4.1 0.1 7.9 0.1h7.1l0.1 2.2c0 1.3 0.1 2.3 0 2.4-0.2 0.2-0.7-0.3-1-1.1-0.8-2.1-1.7-2.5-5.7-2.5h-2.9v7.6h4.1l0.5-0.5c0.4-0.5 0.5-0.7 0.7-2 0.1-0.5 0.2-0.7 0.4-0.7 0.5 0 0.5 7.8 0 7.9-0.3 0-0.4-0.1-0.4-0.7 0-1-0.3-1.9-0.8-2.5l-0.5-0.6h-3.9l-0.1 3.5c0 4.9-0.1 4.8 4.2 4.8 4.2 0 4.5-0.2 5.7-4.6 0.1-0.1 0.2-0.2 0.4-0.2 0.3 0 0.4 5.4 0.1 5.7 0 0.1-3.8 0.1-8.4 0.1l-8.5 0.1v-0.4c0.1-0.4 0.2-0.5 1-0.6 2.7-0.4 2.6 0 2.6-7.9 0.1-8.7 0-9.2-2.9-9.2-0.6 0-0.8-0.3-0.6-0.8 0.1-0.2 0.2-0.2 0.9-0.1zm-79.3 0.1h0.7l0.8 1.7c0.4 0.9 1 2.4 1.3 3.2 1.1 2.7 3.2 7.6 3.8 9 1.5 3.8 2.4 4.5 5.4 4 2.5-0.5 2.5-0.3 2.5-9.4v-7l-0.9-0.3c-0.4-0.2-1-0.4-1.4-0.4-0.5 0-0.6-0.1-0.6-0.4v-0.4h5.7l1.7 2c2.3 2.7 8 9.3 9 10.4l0.8 0.8v-5.2c0-6.6 0-6.7-2.4-7.1q-1.5-0.2-1.2-0.8c0.1-0.1 1.9-0.1 4.2-0.1h4.1v0.4c0 0.3-0.1 0.4-1 0.5-2.7 0.3-2.6-0.1-2.7 9.8v8.1h-0.5c-0.4 0-0.5-0.1-0.9-0.8-1.5-2.5-7.7-10.1-11.7-14.3l-1.2-1.3v7.1c0.1 8.5-0.1 7.9 2.1 8.3 1.2 0.2 1.3 0.3 1.3 0.7l0.1 0.4h-17.4v-0.4c0-0.2 0.1-0.4 0.1-0.4 2.4 0 2.9-0.9 1.7-3.7l-0.7-1.9h-7.6l-0.8 2.1c-1.2 2.8-1 3.5 0.7 3.5 0.4 0 0.5 0.1 0.5 0.4v0.4h-3c-3 0-3 0-3-0.4 0-0.2 0.1-0.4 0.7-0.5 1.9-0.6 1.8-0.4 4.8-7.8 0.7-1.6 1.8-4.2 2.4-5.6 0.6-1.5 1.1-2.7 1.1-2.7 0 0 0.2-0.5 0.4-1 0.4-0.9 0.4-0.9 1.1-0.9zm44.5 0.3c0.1 0.1 0.6 1.5 1.3 3 0.6 1.5 1.9 4.7 2.9 7.1 2.8 6.8 3.1 7.2 4.8 7.6 0.6 0.1 0.8 0.2 0.8 0.5 0 0.4 0 0.4-4.5 0.4h-4.5v-0.4c0-0.3 0.1-0.4 1-0.5 1.8-0.4 1.9-1 0.6-3.9l-0.6-1.6h-3.8c-4.3 0-3.7-0.3-4.7 2.4-1 2.6-0.8 3.2 0.9 3.2 0.3 0 0.4 0.1 0.4 0.4v0.4h-3c-3.1 0-3.1 0-3.1-0.4 0-0.2 0.2-0.4 0.9-0.6 1.5-0.4 2.1-1.1 3.1-3.8 0.3-0.8 1-2.3 1.5-3.5 0.4-1.1 1.2-2.9 1.6-4 2.2-5.1 2.6-6 2.7-6.3 0.2-0.5 1.6-0.5 1.7 0zm54-0.4l6.5 0.1c8.2 0.1 9.5 0.4 10.6 2.7 1.5 3-0.2 5.9-4 6.8-1.3 0.3-1.3 0.4-0.1 0.6 2 0.4 3.4 1.9 3.9 4.2 0.7 3.1 1.1 3.6 2.8 3.6 1.5 0 1.8 0.5 0.4 1-3.2 1.1-5.1 0-5.9-3.4-1.1-4.5-2-5.5-5.9-5.7l-2-0.1v3.4c0.1 4.3 0.2 4.4 2.4 4.8 1.1 0.2 1.3 0.2 1.3 0.6v0.4h-10v-0.4c0-0.4 0.2-0.5 0.9-0.6 2.7-0.4 2.8-0.6 2.7-9.2-0.1-7.3-0.2-7.6-2.7-7.9-0.9 0-0.9-0.1-0.9-0.5zm6.4 1c0 0.1-0.1 1.9-0.1 4.1v4l2.7-0.1c4.4-0.1 5.4-0.8 5.4-4 0-2.1-0.5-3.1-2-3.7-0.7-0.3-5.7-0.6-6-0.3zm-105.7 2.7l-0.2-0.5-0.4 0.9c-0.6 1.3-3 7.2-3 7.4 0 0 1.5 0.1 3.4 0.1 3.1 0 3.3 0 3.2-0.3-0.2-0.6-1.7-4.5-2.2-5.7-0.3-0.7-0.6-1.5-0.8-1.9zm42.3 2.1c-0.6 1.4-1.3 3.2-1.6 3.9-0.3 0.8-0.6 1.5-0.6 1.7 0 0.1 0.8 0.2 3.3 0.2 2.4 0 3.2-0.1 3.2-0.2 0-0.1-0.3-1.1-0.7-2.1-0.4-1-1.1-2.7-1.5-3.7-0.5-1.1-0.8-2.1-0.8-2.2 0-0.6-0.4 0.1-1.3 2.4z"/>
	</g>
</svg>